<?xml version='1.0' encoding='utf-8'?>
<svg xmlns="http://www.w3.org/2000/svg" viewBox="0 0 2160 2159"> <path transform="scale(2.1094)" d="m916.55 239.03c1.189-0.104 2.526-0.139 3.703 0.063 1.89 0.326 3.736 1.549 4.77 3.159 1.096 1.708 1.243 3.729 0.739 5.665-0.746 2.867-2.729 4.41-5.125 5.923-0.638-8e-3 -1.276-0.019-1.913-0.069-2.241-0.179-4.493-1.291-5.912-3.058-1.251-1.557-1.637-3.461-1.302-5.414 0.53-3.095 2.594-4.594 5.04-6.269z" fill="#ACD9DA"/> <path transform="scale(2.1094)" d="m248.47 282c0.906 0.131 1.781 0.264 2.656 0.546 2.246 0.725 4.011 2.019 5.017 4.202 0.954 2.07 0.82 4.518-0.065 6.587-1.357 3.174-3.696 4.461-6.775 5.661-1.173-0.257-2.211-0.543-3.29-1.086-2.408-1.212-4.296-3.266-5.016-5.898-0.541-1.974-0.295-3.982 0.741-5.756 1.531-2.618 3.941-3.52 6.732-4.256z" fill="#ACD9DA"/> <path transform="scale(2.1094)" d="m945.54 386.44c1.146 0.085 2.301 0.178 3.41 0.494 2.586 0.736 4.937 2.344 6.22 4.753 0.925 1.736 1.109 3.834 0.495 5.702-0.998 3.039-3.396 4.491-6.1 5.863-1.263 0.107-2.345 0.17-3.588-0.135-2.26-0.554-4.312-1.82-5.47-3.884-1.174-2.093-1.336-4.597-0.616-6.871 0.948-2.995 3.036-4.437 5.649-5.922z" fill="#ACD9DA"/> <path transform="scale(2.1094)" d="m947.58 686.31c1.58 0.651 3.357 1.394 4.457 2.761 1.66 2.062 1.921 5.154 1.655 7.687-0.836 7.944-5.114 15.32-11.163 20.387l-3.963 2.406c-0.068-3.82-0.213-7.687 0.01-11.502 0.508-8.686 2.33-15.753 9.004-21.739z" fill="#5FC982"/> <path transform="scale(2.1094)" d="m943.72 718.9c9.699-3.405 22.985-7.703 32.943-2.854 1.506 0.733 3.522 1.938 4.243 3.538 0.592 1.314 0.348 1.919-0.025 3.209-2.151 2.548-6.219 3.513-9.422 3.778-9.338 0.772-24.813-5.85-27.57-5.34-0.223-0.76-0.157-1.543-0.169-2.331z" fill="#5FC982"/> <path transform="scale(2.1094)" d="m951.37 628.03c2.317 0.061 4.762 0.472 6.8 1.639 3.568 2.044 4.572 5.545 5.587 9.226-0.378 1.426-0.763 2.86-1.351 4.217-1.564 3.612-3.992 4.943-7.494 6.374-2.107 0.053-3.988 0.104-5.938-0.8-2.81-1.302-4.978-3.739-5.982-6.666-0.957-2.791-0.817-5.881 0.57-8.5 1.709-3.226 4.438-4.542 7.808-5.49z" fill="#5FC982"/> <path transform="scale(2.1094)" d="m410.96 342.43c6.988 0.921 18.671 5.946 24.751 5.784-0.998 2.086-2.243 4.064-3.218 6.145-3.549 6.177-6.861 12.733-10.802 18.656-0.475-0.606-0.773-1.014-1.077-1.732-3.395-9.564-6.23-19.318-9.654-28.853z" fill="#263E4F"/> <path transform="scale(2.1094)" d="m85.879 562.14c1.8021 0.168 3.627 0.388 5.3066 1.108 3.1015 1.328 5.5413 4.028 6.6122 7.215 1.1053 3.29 0.768 6.94-0.8513 10.005-2.1144 4.001-5.5728 6.032-9.8006 7.24-2.7088-0.21-5.2237-0.636-7.5615-2.11-2.9028-1.83-5.0642-4.76-5.7535-8.142-0.6898-3.385 0.0871-6.914 2.0839-9.725 2.4219-3.41 5.9477-4.971 9.9642-5.591zm-1.9171 4.316c-2.755 1.71-4.7374 3.164-5.5625 6.447-0.545 2.169-0.3488 4.45 0.8563 6.372 1.137 1.813 3.1721 3.344 5.3204 3.67 1.3175 0.199 2.7617 0.019 4.0858-0.081 2.6668-1.544 4.6774-2.942 5.5183-6.055 0.5685-2.105 0.2254-4.342-0.9259-6.19-1.2689-2.036-3.4193-3.475-5.75-3.986-1.1965-0.263-2.3269-0.23-3.5424-0.177z" fill="#ACD9DA"/> <path transform="scale(2.1094)" d="m548.95 98.517c2.169 0.0071 4.245 0.2737 6.262 1.1103 3.123 1.2957 5.598 3.8257 6.741 7.0177 1.161 3.242 0.871 6.964-0.74 10.003-2.124 4.011-5.444 5.91-9.68 7.117-2.377-0.168-4.563-0.353-6.77-1.349-3.154-1.422-5.76-3.817-6.953-7.12-1.128-3.122-0.852-6.596 0.685-9.529 2.27-4.331 6.061-5.8971 10.455-7.25z" fill="#D5D6D6"/> <path transform="scale(2.1094)" d="m550.2 103.13c1.282 0.181 2.344 0.365 3.504 0.968 2.012 1.047 3.562 2.705 4.115 4.942 0.526 2.124 0.104 4.31-1.112 6.125-1.631 2.435-3.651 3.119-6.401 3.691-1.561-0.134-2.925-0.326-4.307-1.116-1.705-0.975-2.949-2.569-3.406-4.485-0.526-2.207-0.029-4.523 1.227-6.399 1.648-2.463 3.588-3.148 6.38-3.726z" fill="#FEFEFE"/> <path transform="scale(2.1094)" d="m305.2 384.58c1.925-0.14 3.926-0.089 5.788 0.454 3.421 0.997 6.349 3.106 8.031 6.287 1.774 3.357 1.958 7.369 0.679 10.923-1.819 5.05-5.456 7.331-10.091 9.372-2.503-9e-3 -4.761-0.117-7.117-1.077-3.63-1.479-6.572-4.374-7.905-8.08-1.182-3.289-0.978-6.957 0.564-10.096 2.171-4.42 5.649-6.236 10.051-7.783z" fill="#5FC982"/> <path transform="scale(2.1094)" d="m304.57 389.07c1.687-0.106 3.689-0.286 5.323 0.152 2.384 0.639 4.744 2.605 5.882 4.779 1.104 2.108 1.244 4.591 0.486 6.837-1.07 3.169-3.066 4.555-5.91 6.069-1.178 0.068-2.411 0.156-3.583-0.037-2.586-0.426-5.304-2.011-6.766-4.208-1.322-1.986-1.697-4.339-1.206-6.66 0.726-3.428 3.022-5.065 5.774-6.932z" fill="#BCE2A4"/> <path transform="scale(2.1094)" d="m95.208 246.98c4.4852 1.222 7.5379 4.352 10.686 7.577 3.14 3.216 11.198 9.947 11.142 14.663-2.915 6.797-14.594 15.502-20.393 20.68-0.7926-0.141-1.5735-0.268-2.3344-0.541-6.3174-2.265-17.342-14.747-20.11-20.903 5.0143-8.113 13.366-15.793 21.009-21.476z" fill="#5FC982"/> <path transform="scale(2.1094)" d="m92.44 256.52c1.3621 4.508 0.3364 19.608 0.3594 25.237-1.7312-1.733-3.5466-3.393-5.3236-5.079-2.5798-2.476-5.0194-5.044-7.4379-7.677 3.7291-4.876 7.6292-8.623 12.402-12.481z" fill="#BCE2A4"/> <path transform="scale(2.1094)" d="m840.94 132.39c3.981 0.542 8.014 4.706 10.861 7.352 2.707 2.517 12.243 10.996 11.589 15.176-0.774 4.949-15.037 17.053-19.562 20.221-1.407 0.306-2.64-0.094-3.825-0.861-4.563-2.952-17.879-14.361-18.172-20.099-0.258-5.027 15.174-18.295 19.109-21.789z" fill="#5FC982"/> <path transform="scale(2.1094)" d="m838.94 141.42c1.663 2.035 0.864 22.423 0.9 26.588l-6.615-5.986-7.622-7.656c4.382-4.375 8.889-8.637 13.337-12.946z" fill="#BCE2A4"/> <path transform="scale(2.1094)" d="m820.03 518.2 0.973 0.767c0.13 16.933-1.569 33.962-2.549 50.862-0.793 13.687-0.854 27.802-2.444 41.405-0.265 5.962-3.241 44.972-2.144 46.694l0.437-0.438c3.105-5.785 10.05-24.589 14.559-27.492l2.065 6e-3c-4.027 10.148-10.454 19.168-14.552 29.444-2.576 6.943-3.982 13.937-4.785 21.296-1.387 12.723-0.979 26.017-1.269 38.821-0.561 24.75-1.059 49.506-1.152 74.262-0.03 7.929 0.949 21.452 0.035 28.648l-2.821-0.382c0.225-34.717-0.385-47.771-14.445-80.644l-3.427-5.461 0.433-0.417c1.501 1.704 2.962 3.596 4.658 5.103 6.494 9.429 9.894 21.015 13.495 31.761-1.089-9.934-0.286-20.384-0.108-30.37 0.4-22.432 1.412-44.891-0.407-67.287-2.114-26.032-6.477-53.702-15.01-78.475-0.833-2.416-2.061-7.256-4.024-8.926-0.558-4.7-8.163-17.23-10.644-22.171l0.943-0.368c4.466 6.926 7.041 15.167 12.06 21.75 11.237 24.843 14.869 52.038 19.082 78.732 1.959-9.316 2.165-18.829 2.66-28.302 0.587-11.225 1.186-22.543 2.264-33.73-0.607-6.58 0.893-17.291 1.269-24.283 1.073-19.956 2.203-39.891 2.973-59.863l1.875-0.942z" fill="#0A844A"/> <path transform="scale(2.1094)" d="m870 764.48c8.518-5.216 15.424-12.982 23.792-18.557 3.224-2.148 12.139-5.236 13.727-8.785 2.649-5.917-2.807-16.983 2.42-27.009 1.309-2.509 4.065-6.347 7.105-6.845 1.203-0.197 2.251 0.268 3.137 1.047 1.897 1.668 2.789 5.193 2.935 7.609 0.627 10.328-6.496 16.92-12.654 23.955 5.309-3.568 10.903-6.572 16.657-9.346 5.497-2.624 10.965-5.34 16.606-7.645 0.012 0.788-0.054 1.571 0.169 2.331-4.893 2.805-10.336 4.963-15.379 7.553-6.143 3.748-11.937 7.404-18.724 9.896 9.575 1.032 30.94 2.424 37.165 10.397 0.985 1.261 1.167 2.167 0.945 3.717-1.09 1.764-2.413 2.432-4.401 2.864-14.016 3.046-26.321-6.766-37.972-12.387-11.567 5.158-21.941 12.673-31.389 21.059 3.653 0.184 7.629 0.729 11.253 0.279 8.862-1.101 14.047-4.724 23.623-2.131 2.074 0.562 4.267 1.388 5.787 2.97 0.944 0.983 1.512 2.212 1.319 3.604-0.256 1.835-1.693 3.323-3.238 4.208-4.47 2.562-10.858 1.782-15.598 0.309-4.673-1.453-8.514-4.861-13.004-6.232-3.597-1.099-8.125-0.788-11.861-0.866-10.621 7.418-20.628 18.173-27.79 29.012 10.262-2.872 34.106-7.049 43.281-1.747 1.202 0.695 2.463 1.796 2.911 3.155 0.395 1.198 0.074 2.237-0.579 3.258-1.392 2.178-4.721 3.055-7.1 3.353-11.021 1.384-29.297-2.426-39.576-6.997-6.225 8.43-11.025 16.951-16.293 25.966l-2.089 0.239c3.612-10.219 10.487-19.166 17.075-27.649-5.031-6.04-8.362-12.555-9.854-20.311-1.3-6.756-2.054-17.156 2.24-22.981 1.052-1.428 2.023-2.103 3.794-2.391 9.649 3.365 1.507 28.536 2.293 36.377 0.294 2.93 1.417 5.116 2.795 7.646 8.01-9.672 16.341-18.529 25.269-27.341-0.324-0.556-0.622-1.122-0.918-1.694-4.912-9.494-6.015-22.223-2.521-32.392 1.026-2.987 3.363-8.293 6.681-9.399 0.971-0.324 1.841-0.092 2.575 0.611 6.13 5.867-1.929 24.27-3.617 31.422-0.785 3.323-0.99 6.462-0.997 9.868z" fill="#5FC982"/> <path transform="scale(2.1094)" d="m673.73 521.41 1.166-0.625c1.254 1.258 2.335 1.693 4.032 2.201 6.723 2.013 14.116 2.658 21.054 3.776 11.602 1.869 23.181 3.925 34.751 5.984 8.328 1.481 17.058 2.698 25.131 5.241 7.398 7.395 11.337 18.549 17.032 27.218 2.481 4.941 10.086 17.471 10.644 22.171-15.177 1.305-29.543 1.142-44.244-3.495-31.737-10.01-54.575-33.441-69.566-62.471z" fill="#5FC982"/> <path transform="scale(2.1094)" d="m806.38 822.09 2.821 0.382c5.19 0.022 10.853-0.392 15.981 0.243l2.089-0.239c10.344-0.09 40.514-2.493 47.304 4.282 3.119 3.112 2.087 12.851 1.873 17.046-0.203 3.979-1.24 8.06-4.401 10.721-1.762 1.483-3.968 2.023-6.197 2.358-0.353 3.704-0.594 7.463-1.149 11.14-31.552-0.34-63.139-0.031-94.695-0.039l-5e-3 -10.957-0.915-34.502c6.706 0.021 13.595 0.363 20.273-0.243l3.33 0.148c4.421 9e-3 9.337 0.388 13.691-0.34z" fill="#FB953C"/> <path transform="scale(2.1094)" d="m770 857.03c22.102-0.464 44.21-0.129 66.315-0.238 9.401-0.046 20.345-1.759 29.534 0.094-0.353 3.704-0.594 7.463-1.149 11.14-31.552-0.34-63.139-0.031-94.695-0.039l-5e-3 -10.957z" fill="#B9530B"/> <path transform="scale(2.1094)" d="m770 867.98c31.556 8e-3 63.143-0.301 94.695 0.039l-4.479 40.404c-0.785 7.289-0.853 15.555-3.002 22.544-0.666 2.163-1.506 3.644-3.338 4.998-2.13 1.574-4.726 2.274-7.326 2.556-14.363 1.558-29.716 0.089-44.161 0.031-11.352-0.046-24.259 1.662-35.399-0.324-3.332-0.594-4.859-1.477-6.816-4.278-3.669-5.25-4.71-12.629-6.006-18.767 10.601-13.067 15.488-30.655 15.832-47.203z" fill="#FB953C"/> <path transform="scale(2.1094)" d="m148.28 347.18c12.464-1.332 25.44 2.605 35.405 10.118 10.434 7.866 17.531 19.987 19.218 32.948 1.756 13.494-1.865 27.367-10.199 38.145-8.641 11.176-21.725 17.714-35.579 19.44-12.941 0.877-24.47-1.7-34.91-9.673-10.934-8.349-18.198-20.818-19.991-34.465-1.705-12.968 1.387-26.676 9.534-37.04 9.053-11.516 22.142-17.852 36.522-19.473z" fill="#D0EDD0"/> <path transform="scale(2.1094)" d="m152.8 369.83c0.883 0.82 1.746 1.658 2.589 2.519 8.318 8.479 13.771 20.269 13.601 32.24-0.18 12.728-6.841 22.201-15.664 30.78-0.137-0.106-0.276-0.21-0.411-0.318l-0.673-0.545c-0.776-0.619-1.549-1.233-2.274-1.914-7.81-7.33-12.495-17.432-12.817-28.129-0.419-13.866 6.424-24.891 15.649-34.633z" fill="#5FC982"/> <path transform="scale(2.1094)" d="m714.1 272.93c-3.616 1.154-7.262 2.094-11.027 2.61-17.45 2.396-35.596-2.115-49.633-12.814-13.99-10.663-23.353-26.526-25.684-43.981-2.288-17.135 2.203-35.235 12.853-48.947 10.219-13.158 26.69-22.245 43.198-24.273 18.473-2.27 36.743 3.602 51.287 15.024 12.887 11.276 21.429 27.845 22.633 44.957 1.255 17.859-4.832 36.114-16.648 49.566-7.432 8.461-16.381 14.195-26.979 17.858z" fill="#FB953C"/> <path transform="scale(2.1094)" d="m722.24 186.08c2.639-0.214 4.571-0.371 6.716 1.385 0.628 1.26 0.758 2.226 0.349 3.582-2.013 6.675-38.794 40.508-46.06 47.302-5.955-6.288-26.842-23.33-28.199-30.469-0.246-1.298-0.101-1.905 0.546-3.029 0.959-0.718 1.672-1.093 2.904-1.11 2.22-0.03 4.373 1.101 6.111 2.386 2.995 2.213 5.378 5.62 7.925 8.347 3.492 3.739 7.208 7.314 11.015 10.728 6.147-6.209 35.703-33.831 38.693-39.122z" fill="#FEFEFE"/> <path transform="scale(2.1094)" d="m735.09 160.55c12.887 11.276 21.429 27.845 22.633 44.957 1.255 17.859-4.832 36.114-16.648 49.566-7.432 8.461-16.381 14.195-26.979 17.858-8.782-12.704-21.278-22.554-30.851-34.577 7.266-6.794 44.047-40.627 46.06-47.302 0.409-1.356 0.279-2.322-0.349-3.582-2.145-1.756-4.077-1.599-6.716-1.385 0.811-4.684 10.51-18.543 12.85-25.535z" fill="#F2750E"/> <path transform="scale(2.1094)" d="m969.55 482.76c-2.934 44.751-21.356 95.349-55.722 125.3-18.052 15.735-42.206 25.752-66.414 24.052-2.454-0.172-15.274-2.804-16.494-2.114l-2.065-6e-3c0.164-0.581 0.457-1.14 0.491-1.742 0.045-0.831-0.843-3.006-1.096-3.913-1.975-7.074-3.663-14.01-4.367-21.353-3.971-41.435 28.551-80.388 62.805-99.58 24.891-13.946 54.327-21.423 82.862-20.648z" fill="#22A268"/> <path transform="scale(2.1094)" d="m423.6 240.34c6.801 2.358 13.695 4.809 20.982 4.741 11.768-0.108 22.016-6.438 32.395-11.246 16.502-7.644 35.704-11.341 53.789-8.685 15.947 2.342 32.47 10.127 42.196 23.376 5.123 6.98 8.6 15.362 7.314 24.109-1.083 0.109-2.021 0.322-2.943 0.94-3.2 2.141-6.016 5.544-8.953 8.104-5.122 4.468-10.722 8.784-16.273 12.71-9.242 6.536-19.962 12.306-30.236 17.074-29.586 13.728-63.331 20.034-95.787 21.68-7.129 0.361-14.368-0.103-21.514-0.064l-1.418 1.856c-3.931-5.372-6.326-10.938-7.352-17.542-3.165-20.384 4.821-39.727 16.68-55.94 4.908 6.117 10.095 11.449 15.766 16.855-5.022-13.371-6.606-23.805-4.646-37.968z" fill="#263E4F"/> <path transform="scale(2.1094)" d="m673.73 521.41c-2.147-4.52-4.242-9.078-6.039-13.749-11.619-30.21-12.35-63.289-9.414-95.133 0.566-6.135 0.523-14.413 3.023-20.07l0.681 0.051c6.105 0.925 12.541 3.651 18.319 5.82 26.052 9.782 43.884 19.797 67.733 33.542 20.315 13.412 37.289 30.635 48.221 52.638 3.936 7.922 7.074 16.25 9.297 24.813 0.594 2.29 1.295 8.222 2.84 9.554-1.349 4.07-0.048 10.686-0.187 15.097-0.599 18.993-7.09 37.306-18.305 52.614-5.019-6.583-7.594-14.824-12.06-21.75l-0.943 0.368c-5.695-8.669-9.634-19.823-17.032-27.218-8.073-2.543-16.803-3.76-25.131-5.241-11.57-2.059-23.149-4.115-34.751-5.984-6.938-1.118-14.331-1.763-21.054-3.776-1.697-0.508-2.778-0.943-4.032-2.201l-1.166 0.625z" fill="#5FC982"/> <path transform="scale(2.1094)" d="m714.94 466.8c-4.531-7.54-9.971-14.682-15.118-21.819-6.593-9.142-13.113-18.349-19.834-27.398-3.948-5.316-14.919-18.078-16.827-23.537 6.999 4.254 17.262 21.998 22.34 29.217 7.505 10.669 15.232 21.175 22.842 31.767 2.843 3.958 5.284 8.245 8.256 12.098l0.205-0.652c1.75-5.716 6.617-42.756 8.069-44.249 1.394 4.287-5.919 38.181-6.562 46.14 3.5 7.373 8.287 14.2 12.752 21.016 9.628 14.697 20.171 29.279 29.036 44.421 1.012-13.718 5.051-73.994 9.786-83.019l0.559 0.116c0.203 8.706-2.161 17.161-3.385 25.729-1.317 9.212-6.714 54.174-4.757 59.873 2.905 8.456 11.048 19.91 15.543 28.327l-0.943 0.368c-5.695-8.669-9.634-19.823-17.032-27.218-8.073-2.543-16.803-3.76-25.131-5.241-11.57-2.059-23.149-4.115-34.751-5.984-6.938-1.118-14.331-1.763-21.054-3.776-1.697-0.508-2.778-0.943-4.032-2.201 5.763-0.511 22.126 3.643 29.068 4.988l55.434 10.643c-6.5-14.172-17.745-29.401-26.371-42.572-5.3-8.091-10.455-17.453-16.836-24.688-10.809-3.528-21.852-5.733-32.96-8.066-8.556-1.797-18.163-2.901-25.934-7.035 19.521 2.012 38.249 10.202 57.637 12.752z" fill="#0A844A"/> <path transform="scale(2.1094)" d="m673.73 521.41c-2.147-4.52-4.242-9.078-6.039-13.749-11.619-30.21-12.35-63.289-9.414-95.133 0.566-6.135 0.523-14.413 3.023-20.07l0.681 0.051c0.319 0.431 0.787 1.188 1.174 1.544 1.908 5.459 12.879 18.221 16.827 23.537 6.721 9.049 13.241 18.256 19.834 27.398 5.147 7.137 10.587 14.279 15.118 21.819-19.388-2.55-38.116-10.74-57.637-12.752 7.771 4.134 17.378 5.238 25.934 7.035 11.108 2.333 22.151 4.538 32.96 8.066 6.381 7.235 11.536 16.597 16.836 24.688 8.626 13.171 19.871 28.4 26.371 42.572l-55.434-10.643c-6.942-1.345-23.305-5.499-29.068-4.988l-1.166 0.625z" fill="#5FC982"/> <path transform="scale(2.1094)" d="m133.48 924.78c-1.082-0.49-2.142-1.016-3.168-1.616-8.787-5.144-16.185-12.743-22.743-20.437-20.735-24.326-35.192-53.506-43.248-84.35-10.081-38.596-22.54-121.46-1.8033-156.39 13.876-23.369 42.33-33.991 67.476-40.289l0.508 135.04c0.688 3.965 0.475 7.947 0.128 11.939-0.024 3.929 3e-3 7.814 0.267 11.735 0.086 3.875 0.195 7.747 0.098 11.623l-0.025 25.478c0.039 13.475 0.576 27.306-0.308 40.737-0.034 15.26-1.922 54.378 2.818 66.525z" fill="#D0EDD0"/> <path transform="scale(2.1094)" d="m130.97 817.52c0.039 13.475 0.576 27.306-0.308 40.737-0.238-9.343-9e-3 -18.729 0.04-28.077-3.461-0.604-7.152-1.227-10.052-3.34-1.477-1.077-2.922-2.621-3.026-4.551-0.071-1.315 0.511-2.245 1.441-3.109 2.904-2.696 8.32-1.857 11.905-1.66z" fill="#5FC982"/> <path transform="scale(2.1094)" d="m131 792.04c-6.387 0.023-12.357 0.394-17.677-3.799-2.366-1.863-3.95-3.899-4.267-6.924 0.443-1.255 0.707-1.902 1.898-2.601 5.296-3.108 14.574 0.067 19.948 1.701 0.086 3.875 0.195 7.747 0.098 11.623z" fill="#5FC982"/> <path transform="scale(2.1094)" d="m105.06 723.99c-1.37-7.971-2.912-16.304-2.021-24.412 0.414-3.759 1.141-8.168 4.214-10.664 1.128-0.278 1.712-0.549 2.813 0.041 2.597 1.393 3.854 5.267 4.279 7.958 1.542 9.771-3.005 20.097-8.637 27.8 6.509 6.367 12.254 13.052 17.374 20.606 2.457 3.626 4.542 7.537 7.145 11.049l0.283 0.375c0.688 3.965 0.475 7.947 0.128 11.939 0.087-6.59-4.075-11.55-7.416-16.984-4.416-0.506-8.754-1.189-13.206-1.457-7.768-0.466-19.827 1.157-25.617-5.236-1.2064-1.332-2.1933-3.111-1.9265-4.969 0.1985-1.383 0.984-2.24 2.128-2.958 6.62-4.152 22.59 6.476 28.714 9.284 2.776 1.273 5.658 2.136 8.593 2.96-8.209-13.401-19.433-25.388-32.769-33.804-7.567 3e-3 -14.492-1.399-21.055-5.337-3.0958-1.857-8.2441-5.228-8.7778-9.048-0.2066-1.478 0.2958-2.886 1.1055-4.102 0.9101-1.366 2.1753-2.31 3.8469-2.535 9.6596-1.3 23.466 14.348 30.131 20.543 3.4083 3.168 6.9768 6.124 10.672 8.951z" fill="#5FC982"/> <path transform="scale(2.1094)" d="m748.37 402.86c2.659-19.133 7.37-37.023 13.915-55.179 1.837-5.095 3.543-10.353 5.873-15.248 5.233-10.994 12.012-21.276 18.72-31.408 6.756-10.203 14.576-21.08 24.056-28.892 4.042-3.332 9.228-6.574 14.686-5.846 12.205 1.626 27.67 22.631 35.184 32.207 28.485 35.449 45.65 83.266 40.729 128.95-2.946 27.355-14.675 54.202-36.519 71.621-13.206 10.531-27.211 15.851-43.539 19.363l-0.477 0.538-0.973-0.767-1.875 0.942c-3.062-0.556-6.63-0.263-9.756-0.265-1.545-1.332-2.246-7.264-2.84-9.554-2.223-8.563-5.361-16.891-9.297-24.813-10.932-22.003-27.906-39.226-48.221-52.638-0.24-8.833-0.428-17.555-1e-3 -26.388l0.335-2.626z" fill="#BCE2A4"/> <path transform="scale(2.1094)" d="m821.01 341.89c-0.22-15.466 5e-3 -30.935-0.106-46.401-0.065-8.982-1.623-19.609 0.322-28.355 2.105 4.806 0.883 62.11 0.85 73.055 4.92-4.701 31.975-33.434 33.962-37.366 1.024-0.575 1.912-1.374 3.096-1.256-0.53 0.989-1.057 1.849-1.754 2.73-7.835 8.017-15.446 16.27-22.928 24.617-4.118 4.595-8.057 9.404-12.397 13.79l-9e-3 67.572c16.605-17.228 32.973-35.149 48.888-53.032 2.391-2.448 11.866-14.091 14.319-14.411l0.367 0.688c-3.963 6.195-11.001 10.556-15.175 16.54-11.263 11.78-22.284 23.784-33.321 35.776-4.934 5.361-10.875 10.781-15.06 16.704 0.254 22.315 0.583 44.608 0.387 66.928-0.183 2.555-0.314 5.089-0.365 7.651 7.245-9.581 17.24-18.022 25.534-26.799l27.022-28.717c8.477-9.033 16.792-18.119 26.332-26.062l0.343 0.162c-3.018 5.261-8.658 9.582-12.954 13.851-5.061 5.028-10.018 10.153-14.936 15.321-12.411 13.039-24.523 26.351-37.028 39.305-4.741 4.912-9.248 10.315-14.413 14.759 1.124 9.603 1.127 19.965-0.511 29.489l-0.477 0.538-0.973-0.767c1.818-2.609 0.771-24.949 0.508-29.69-13.967-16.978-28.912-33.137-43.233-49.814-9.545-11.115-18.3-23.446-29.265-33.212l0.335-2.626c9.679 7.665 17.052 19.548 25.041 28.901l47.511 54.615-0.316-73.696c-10.802-14.755-22.778-28.493-34.809-42.24-8.054-9.203-16.942-18.475-23.588-28.735l0.462 0.365c10.518 8.166 19.964 21.184 28.456 31.489 10.115 12.273 20.511 24.504 29.82 37.405-0.486-22.674-0.032-45.421-0.086-68.105-5.924-6.409-11.275-13.451-16.833-20.184-6.138-7.433-13.011-14.444-17.755-22.879 9.714 8.492 27.802 31.023 34.737 42.096z" fill="#5FC982"/> <path transform="scale(2.1094)" d="m748.04 405.48c10.965 9.766 19.72 22.097 29.265 33.212 14.321 16.677 29.266 32.836 43.233 49.814 0.263 4.741 1.31 27.081-0.508 29.69l-1.875 0.942c-3.062-0.556-6.63-0.263-9.756-0.265-1.545-1.332-2.246-7.264-2.84-9.554-2.223-8.563-5.361-16.891-9.297-24.813-10.932-22.003-27.906-39.226-48.221-52.638-0.24-8.833-0.428-17.555-1e-3 -26.388z" fill="#BCE2A4"/> <path transform="scale(2.1094)" d="m870.45 360.06c1.61 5.866 0.236 13.067-0.775 18.933-4.141 24.033-12.585 45.367-24.616 66.511-6.695 11.766-14.182 23.354-22.603 33.964 0.196-22.32-0.133-44.613-0.387-66.928 4.185-5.923 10.126-11.343 15.06-16.704 11.037-11.992 22.058-23.996 33.321-35.776z" fill="#BCE2A4"/> <path transform="scale(2.1094)" d="m857.38 304.29c0.494 0.875 0.984 1.746 1.502 2.607 9.547 15.854 9.3 33.007 12.052 50.34-15.915 17.883-32.283 35.804-48.888 53.032l9e-3 -67.572c4.34-4.386 8.279-9.195 12.397-13.79 7.482-8.347 15.093-16.6 22.928-24.617z" fill="#BCE2A4"/> <path transform="scale(2.1094)" d="m860.8 298.49c28.485 35.449 45.65 83.266 40.729 128.95-2.946 27.355-14.675 54.202-36.519 71.621-13.206 10.531-27.211 15.851-43.539 19.363 1.638-9.524 1.635-19.886 0.511-29.489 5.165-4.444 9.672-9.847 14.413-14.759 12.505-12.954 24.617-26.266 37.028-39.305 4.918-5.168 9.875-10.293 14.936-15.321 4.296-4.269 9.936-8.59 12.954-13.851l-0.343-0.162c-9.54 7.943-17.855 17.029-26.332 26.062l-27.022 28.717c-8.294 8.777-18.289 17.218-25.534 26.799 0.051-2.562 0.182-5.096 0.365-7.651 8.421-10.61 15.908-22.198 22.603-33.964 12.031-21.144 20.475-42.478 24.616-66.511 1.011-5.866 2.385-13.067 0.775-18.933 4.174-5.984 11.212-10.345 15.175-16.54l-0.367-0.688c-2.453 0.32-11.928 11.963-14.319 14.411-2.752-17.333-2.505-34.486-12.052-50.34-0.518-0.861-1.008-1.732-1.502-2.607 0.697-0.881 1.224-1.741 1.754-2.73-1.184-0.118-2.072 0.681-3.096 1.256 1.247-2.243 2.331-3.436 4.766-4.331z" fill="#9BC866"/> <path transform="scale(2.1094)" d="m580.28 272.63c2.328 2.444 10.472 2.309 14.143 3.554 14.392 4.882 19.155 22.557 18.812 36.06-0.499 19.664-6.284 40.272-13.718 58.373 9.253 3.49 17.413 5.976 21.657 15.892 2.474 5.782 2.561 12.508 0.155 18.325-2.571 6.218-7.628 10.662-13.827 13.101-3.66 1.44-7.638 2.055-11.49 2.768-8.947 26.333-23.732 48.899-49.226 61.571-1.119 0.556-2.218 1.039-3.394 1.461-4.615 1.074-9.247 3.231-13.895 4.484-20.636 5.565-34.807 3.249-54.367-4.614-29.738-17.224-39.037-29.906-50.555-62.049-6.617-1.084-12.748-2.034-18.407-5.958-5.865-4.066-10.242-10.24-11.369-17.365-0.962-6.084 0.691-12.27 4.45-17.143 5.316-6.891 13.212-8.806 21.364-9.811 0.304 0.718 0.602 1.126 1.077 1.732 3.941-5.923 7.253-12.479 10.802-18.656 0.975-2.081 2.22-4.059 3.218-6.145-6.08 0.162-17.763-4.863-24.751-5.784-1.935-2.67-5.386-5.157-7.803-7.496l1.418-1.856c7.146-0.039 14.385 0.425 21.514 0.064 32.456-1.646 66.201-7.952 95.787-21.68 10.274-4.768 20.994-10.538 30.236-17.074 5.551-3.926 11.151-8.242 16.273-12.71 2.937-2.56 5.753-5.963 8.953-8.104 0.922-0.618 1.86-0.831 2.943-0.94z" fill="#FAC1A2"/> <path transform="scale(2.1094)" d="m419.96 392.4c1.02 0.915 0.978 1.348 1.314 2.699-0.181 0.829-0.249 1.333-0.854 1.973-0.621 0.657-1.56 0.421-2.417 0.459-1.013-0.75-1.442-0.938-1.929-2.08 0.76-1.528 2.439-2.174 3.886-3.051z" fill="#FB953C"/> <path transform="scale(2.1094)" d="m500.32 439.18c3.396 0.712 7.535 2.97 10.928 2.98 2.352 7e-3 4.329-1.334 6.74-0.919 0.683 1.1 0.412 1.208 0.215 2.431-2.973 1.265-5.367 1.668-8.591 1.539-2.656-0.106-7.251-0.537-8.915-2.961-0.776-1.13-0.567-1.825-0.377-3.07z" fill="#F2750E"/> <path transform="scale(2.1094)" d="m599.12 383.72c2.035-0.066 3.961 3e-3 5.86 0.825 2.558 1.106 4.459 3.187 5.442 5.785 1.365 3.611 1.024 7.898-0.64 11.35-2.008 4.165-4.929 5.998-9.165 7.415-1.231-0.36-1.236-0.294-1.913-1.37 0.848-1.708 3.053-2.599 4.58-3.774 2.81-2.162 5.423-4.656 5.779-8.377 0.712-7.434-6.373-6.838-9.539-11.252-0.14-0.196-0.269-0.401-0.404-0.602z" fill="#FB953C"/> <path transform="scale(2.1094)" d="m414.84 382.57c0.953-0.09 1.95-0.218 2.907-0.186 1.296 0.044 1.964 0.195 2.818 1.156l-0.443 0.661c-2.052 0.903-4.074 1.834-5.813 3.276-2.324 1.928-3.929 4.733-4.046 7.785-0.099 2.595 0.862 5.018 2.696 6.847 2.848 2.84 5.302 2.86 9.077 2.934l-0.841 1.597c-1.208 0.906-2.347 1.392-3.869 1.294-2.617-0.167-5.075-2.008-6.695-3.956-2.466-2.967-3.476-6.852-2.948-10.657 0.679-4.886 3.468-7.842 7.157-10.751z" fill="#FB953C"/> <path transform="scale(2.1094)" d="m505.11 385.76c5.134 4.031 0.685 12.552 2.645 17.963 1.526 4.212 5.74 7.787 8.144 11.594 1.377 2.181 2.54 4.854 1.774 7.466-0.482 1.642-1.972 3.68-3.539 4.442-2.722 1.322-5.172 0.278-7.817-0.645-0.303-0.366-0.885-1.031-1.081-1.444-0.461-0.968-0.313-1.454 0.087-2.373 1.848-0.486 5.127 1.429 7.13 1.798 0.649-0.253 1.155-0.234 1.453-0.92 2.296-5.299-8.429-15.761-10.027-21.574-1.254-4.562-1.204-12.047 1.231-16.307z" fill="#F2750E"/> <path transform="scale(2.1094)" d="m462.47 358.6c3.517-0.239 8.215-0.644 11.263 1.417 1.309 0.885 2.709 2.744 2.839 4.338 0.066 0.808-0.422 1.101-0.888 1.697-4.414 1.903-8.887 0.153-13.487 0.632-0.183 0.019-0.366 0.043-0.548 0.065-2.166 1.383-5.947 4.381-8.695 3.783-1.442-0.314-1.683-0.599-2.499-1.716-0.19-1.432-0.098-2.442 0.651-3.691 2.389-3.984 7.136-5.417 11.364-6.525z" fill="#263E4F"/> <path transform="scale(2.1094)" d="m551.17 358.21c2.266 0.055 4.721 0.117 6.931 0.648 3.132 0.753 6.463 2.64 8.092 5.512 0.753 1.327 0.921 2.425 0.467 3.906-0.66 0.612-0.919 1.049-1.84 1.24-2.637 0.545-4.773-1.172-6.905-2.476-5.104-1.54-9.35 1.109-14.198 0.285-1.285-0.218-2.694-0.92-3.385-2.106-0.734-1.261-0.563-1.586-0.201-2.899 2.908-3.145 6.966-3.845 11.039-4.11z" fill="#263E4F"/> <path transform="scale(2.1094)" d="m551.68 379.49c0.62-0.02 1.241-0.038 1.861-0.01 3.79 0.166 5.816 2.543 8.166 5.155 0.099 2.089-0.033 4.192-0.108 6.281-1.714 2.394-3.447 3.905-5.998 5.393-0.921 0.021-1.876 0.052-2.79-0.073-2.384-0.323-4.82-1.758-6.096-3.815-1.196-1.929-1.37-4.335-0.754-6.49 0.91-3.183 2.934-4.87 5.719-6.441z" fill="#263E4F"/> <path transform="scale(2.1094)" d="m463 379.45c1.232-3e-3 2.504-0.023 3.713 0.25 2.572 0.579 4.995 2.173 6.322 4.484 1.001 1.741 1.263 3.771 0.707 5.703-0.888 3.086-3.097 4.455-5.76 5.933-1.023 0.18-2.07 0.367-3.112 0.294-2.153-0.15-4.386-1.05-5.778-2.745-1.453-1.77-1.831-4.178-1.499-6.394 0.547-3.652 2.629-5.399 5.407-7.525z" fill="#263E4F"/> <path transform="scale(2.1094)" d="m435.71 348.21c8.511-0.15 17.065-0.098 25.554-0.767 30.238-2.387 60.472-11.205 85.574-28.561 4.601-3.18 8.89-6.91 13.211-10.458 0.53 2.243 1.152 4.471 1.734 6.701l-0.407 0.357c-5.967 5.337-10.597 11.982-17.046 16.849-25.738 19.423-53.714 22.67-84.775 22.712-7.153 0.01-14.403 0.22-21.543-0.164-1.847-0.1-3.686-0.29-5.52-0.524 0.975-2.081 2.22-4.059 3.218-6.145z" fill="#FB953C"/> <defs> <linearGradient id="b" x1="513.56" x2="504.75" y1="380.75" y2="279.95" gradientUnits="userSpaceOnUse"> <stop stop-color="#11273A" offset="0"/> <stop stop-color="#223F50" offset="1"/> </linearGradient> </defs> <path transform="scale(2.1094)" d="m580.28 272.63c2.328 2.444 10.472 2.309 14.143 3.554 14.392 4.882 19.155 22.557 18.812 36.06-0.499 19.664-6.284 40.272-13.718 58.373l-2.827 5.319c-3.427-7.749-7.105-15.705-11.67-22.854-8.167-12.787-17.252-23.783-23.237-37.957-0.582-2.23-1.204-4.458-1.734-6.701-4.321 3.548-8.61 7.278-13.211 10.458-25.102 17.356-55.336 26.174-85.574 28.561-8.489 0.669-17.043 0.617-25.554 0.767-6.08 0.162-17.763-4.863-24.751-5.784-1.935-2.67-5.386-5.157-7.803-7.496l1.418-1.856c7.146-0.039 14.385 0.425 21.514 0.064 32.456-1.646 66.201-7.952 95.787-21.68 10.274-4.768 20.994-10.538 30.236-17.074 5.551-3.926 11.151-8.242 16.273-12.71 2.937-2.56 5.753-5.963 8.953-8.104 0.922-0.618 1.86-0.831 2.943-0.94z" fill="url(#b)"/> <path transform="scale(2.1094)" d="m376.26 83.737c13.142-0.2106 31.517-2.5036 41.906 7.0719 7.101 6.5449 9.279 14.422 9.606 23.838 0.497 14.264 0.087 28.611 0.149 42.886 0.05 11.483 1.458 24.14-0.799 35.433-1.07 5.35-3.279 10.578-7.117 14.545-8.62 8.91-21.103 8.167-32.474 8.512 0.164 10.413 3e-3 20.841-0.044 31.255-10.235-11.032-21.872-20.72-32.493-31.395-14.637-0.292-29.333-0.041-43.975-0.048l-87.766 2e-3 -36.749 0.095c-7.759 0.016-16.049 0.564-23.712-0.743-3.724-0.636-7.735-1.865-10.689-4.282-7.48-6.121-10.219-12.965-11.035-22.402-0.959-11.09-0.035-22.315-0.046-33.434-0.014-14.425-1.833-35.235 0.906-48.799 0.887-4.39 3.026-8.4127 5.949-11.786 4.814-5.5559 10.945-8.2417 18.092-9.5166 7.456-1.33 15.251-0.9269 22.797-0.9274l30.818-0.0011 101.58 0.0259c18.204 0.0074 36.945 0.9089 55.095-0.3299z" fill="#5FC982"/> <path transform="scale(2.1094)" d="m353.53 138.02c2.244-0.128 4.759 0.276 6.827 1.165 3.489 1.5 6.198 4.401 7.432 7.994 1.164 3.389 0.932 7.106-0.648 10.322-1.969 4.006-5.287 5.898-9.347 7.338-2.535 0.012-5.302-0.086-7.634-1.165-3.316-1.534-5.866-4.28-7.126-7.709-1.287-3.501-1.15-7.564 0.604-10.881 2.134-4.034 5.657-5.884 9.892-7.064z" fill="#FEFEFE"/> <path transform="scale(2.1094)" d="m303.8 138.14c2.984-0.24 5.902-0.282 8.749 0.787 3.519 1.322 6.484 3.91 8.009 7.374 1.41 3.206 1.466 6.975 0.133 10.214-1.751 4.256-5.029 6.346-9.104 8.037-2.157 0.309-4.283 0.45-6.422-0.077-3.72-0.918-6.896-3.349-8.751-6.703-1.846-3.338-2.216-7.407-0.99-11.019 1.481-4.363 4.425-6.581 8.376-8.613z" fill="#FEFEFE"/> <path transform="scale(2.1094)" d="m260.1 137.62c1.817 0.127 3.712 0.611 5.391 1.316 3.241 1.36 5.768 3.78 6.954 7.126 1.305 3.685 0.981 7.697-0.777 11.174-2.374 4.693-6.046 6.48-10.811 7.913-2.989-0.227-5.595-0.578-8.182-2.204-3.045-1.912-5.164-4.913-5.902-8.436-0.768-3.665-0.058-7.524 2.083-10.611 2.801-4.038 6.668-5.349 11.244-6.278z" fill="#FEFEFE"/> <path transform="scale(2.1094)" d="m209.42 137.54c2.362-0.033 5.256 0.641 7.403 1.613 3.584 1.623 6.373 4.627 7.585 8.382 1.066 3.305 0.813 6.879-0.79 9.967-2.136 4.113-5.693 6.013-9.911 7.456-2.637 0.115-5.165-0.051-7.633-1.077-3.488-1.45-6.18-4.232-7.443-7.796-1.234-3.48-1.03-7.427 0.608-10.74 2.21-4.469 5.738-6.226 10.181-7.805z" fill="#FEFEFE"/> <defs> <linearGradient id="a" x1="432.85" x2="70.072" y1="813.71" y2="604.19" gradientUnits="userSpaceOnUse"> <stop stop-color="#576478" offset="0"/> <stop stop-color="#567A7F" offset="1"/> </linearGradient> </defs> <path transform="scale(2.1094)" d="m130 621.7c-0.168-23.21 0.293-46.417 0.044-69.623-0.147-13.805-1.976-35.757 0.191-48.822 0.951-5.735 3.199-11.346 7.127-15.702 6.267-6.949 14.184-9.537 23.318-9.968 13.774-0.65 27.667-0.112 41.458-0.093l76.172 0.045 40.55-0.02c8.959-0.068 18.467-0.908 27.352 0.366 6.165 0.884 11.976 3.736 16.54 7.959 13.603 12.591 10.268 33.073 10.173 49.716-0.062 10.761 0.025 21.509 0.384 32.264 0.795 24.961 0.145 50.151 0.138 75.134l-9e-3 140.82 0.02 85.473c8e-3 14.683 1.059 30.097-0.322 44.687-0.534 5.633-2.054 11.134-6.053 15.339-3.98 4.185-9.694 6.139-13.669 10.155l-138.43-0.1-34.29-0.088c-9.062 0.034-18.234 0.663-27.229-0.682-9.005-1.346-14.7-6.714-19.977-13.786-4.74-12.147-2.852-51.265-2.818-66.525 0.884-13.431 0.347-27.262 0.308-40.737l0.025-25.478c0.097-3.876-0.012-7.748-0.098-11.623-0.264-3.921-0.291-7.806-0.267-11.735 0.347-3.992 0.56-7.974-0.128-11.939l-0.508-135.04z" fill="url(#a)"/> <path transform="scale(2.1094)" d="m294.02 492.8 0.699-1.383c0.649-0.173 1.214-0.319 1.886-0.375 6.444-0.53 13.359 0.019 19.849-0.042 8.699-0.082 18.72-1.224 27.297 0.193 3.606 0.596 7.126 1.731 9.972 4.11 4.452 3.719 5.97 8.705 6.561 14.288 0.657 6.212 0.296 12.746 0.291 18.996l-0.031 32.978-0.016 105.23 0.236 147.54 0.22 58.22c0.041 10.998 0.457 22.112-0.027 33.097-0.209 4.744-0.838 10.542-4.045 14.247-4.115 4.756-9.76 5.747-15.689 6.148-10.594 0.715-21.441-0.174-32.068-0.229l-63.909-0.034-49.465 0.058c-11.586 0.122-23.829 0.98-35.345-0.183-4.393-0.444-8.494-1.747-11.816-4.78-4.797-4.38-5.3-10.163-5.532-16.25-0.308-8.109-0.026-16.305-0.038-24.426l-0.041-49.723-0.204-148.83-0.279-115.02c-0.019-19.176-1.069-41.419 0.403-60.171 0.286-3.634 1.519-7.93 4.191-10.574 2.835-2.805 7.548-3.996 11.377-4.558 7.542-1.107 15.912-0.065 23.53 0.076 8.482 0.158 16.977-0.153 25.454 0.101 5.161 0.534 10.512-0.371 15.704-0.455 14.635-0.236 29.297-0.075 43.935-0.09 7.825-8e-3 16.075-0.564 23.859 0.043 0.966 0.075 1.57 0.186 2.387 0.752l0.654 1.043z" fill="#FEFEFE"/> <path transform="scale(2.1094)" d="m168.01 601.52c12.448-0.34 25.109 0.562 37.499-0.214-6.006 8.042-16.101 17.626-23.631 24.284-3.884 3.435-11.34 8.154-13.985 12.312-1.001-1.683 0.021-6.518 0.132-8.488 0.521-9.271 0.087-18.612-0.015-27.894z" fill="#FBB552"/> <path transform="scale(2.1094)" d="m205.51 601.3c1.39 0.266 2.34 0.368 3.368 1.443 2.057 6.366 0.865 27.476 0.565 35.117-8.305 1.516-33.933 2.424-41.549 0.036 2.645-4.158 10.101-8.877 13.985-12.312 7.53-6.658 17.625-16.242 23.631-24.284z" fill="#FB953C"/> <path transform="scale(2.1094)" d="m229.35 616.95c13.706 2.378 28.303 1.982 41.202-3.424 0.198 8.259 1.153 16.289-0.209 24.499-7.594 0.698-34.707 2.361-40.632-0.69-2.209-5.542-0.385-14.395-0.361-20.385z" fill="#FB953C"/> <path transform="scale(2.1094)" d="m207.48 491.5c5.161 0.534 10.512-0.371 15.704-0.455 14.635-0.236 29.297-0.075 43.935-0.09 7.825-8e-3 16.075-0.564 23.859 0.043 0.966 0.075 1.57 0.186 2.387 0.752l0.654 1.043c0.043 1.405-7e-3 2.821-0.163 4.219-0.541 4.87-2.766 8.014-6.476 11.048-5.139 1.142-10.583 1.078-15.831 1.156-7.389 0.11-14.773-0.202-22.16-0.158-10.601 0.063-22.397 1.344-32.779-0.769-2.276-0.463-3.984-1.334-5.608-3.025-3.566-3.711-3.497-8.969-3.522-13.764z" fill="#263E4F"/> <path transform="scale(2.1094)" d="m246.66 722.78c7.707-0.365 26.472-2.196 32.481 2.729 1.584 1.299 2.098 2.69 2.242 4.716 0.144 2.039-0.313 3.991-1.738 5.513-1.834 1.956-4.652 2.737-7.222 3.107-7.359 1.059-15.888 0.125-23.379 0.124l-54.417 0.099c-8.08 0.158-25.72 1.8-32.52-2.481-1.534-0.967-2.916-2.495-3.092-4.378-0.317-3.406 2.493-6.841 4.696-9.087 9.483-0.693 19.205-0.302 28.708-0.297l54.241-0.045z" fill="#D5D6D6"/> <path transform="scale(2.1094)" d="m229.56 567.52c13.461-0.368 27.504-0.833 40.917 0.302 0.351 15.185 0.566 30.524 0.075 45.704-12.899 5.406-27.496 5.802-41.202 3.424-0.344-16.387-0.415-33.055 0.21-49.43z" fill="#FBB552"/> <path transform="scale(2.1094)" d="m175.32 678.25 84.19 9e-3c24.186-0.125 48.314-0.539 72.497 0.283l0.149 0.102c2.524 1.686 5.4 4.026 5.828 7.267 0.241 1.824-0.616 3.462-1.841 4.738-3.7 3.854-8.982 3.573-13.863 3.561l-81.029-3e-3 -42.769 0.022c-9.469-3e-3 -27.43 1.349-36.061-1.536-1.916-1.959-3.279-3.777-3.481-6.601-0.123-1.713 0.52-3.1 1.694-4.294 3.925-3.992 9.568-3.54 14.686-3.548z" fill="#D5D6D6"/> <path transform="scale(2.1094)" d="m292.03 539.48c11.988 0.131 23.983-0.372 35.969 0.172 2.371 0.107 6.185-0.011 7.86 1.836 1.754 5.649 1.9 90.112 0.525 96.841-14.325 0.679-29.853 1.816-43.977-0.869-1.743-11.471-0.627-23.561-0.619-35.158 0.015-20.937-0.194-41.889 0.242-62.822z" fill="#5FC982"/> <path transform="scale(2.1094)" d="m169.45 775.55c28.899-0.732 57.99-0.027 86.908-0.029 24.348-2e-3 48.939-0.82 73.25-2e-3 2.036 0.068 4.47 0.08 6.371 0.841 1.616 0.648 2.858 2.363 3.382 3.97 2.582 7.916 0.827 35.78 0.877 46.116 0.093 19.003 1.146 38.121 0.153 57.111-0.108 2.066-0.139 4.531-1.227 6.355-1.062 1.78-2.918 1.968-4.769 2.25-34.892 0.939-69.857 0.183-104.76 0.079l-37.25 0.012c-6.656 0.011-13.55 0.41-20.182-0.097-2.132-0.163-6.447-0.326-7.655-2.219-0.887-1.388-0.917-3.894-1.007-5.52-0.692-12.362-1.33-97.955 0.871-104.72 0.766-2.354 2.995-3.107 5.033-4.147z" fill="#ACD9DA"/> <path transform="scale(2.1094)" d="m254.9 869.91c-2.369 1.552-4.506 2.425-7.352 2.731-11.504 1.239-22.699-3.049-31.588-10.153-10.999-8.792-18.015-22.427-19.532-36.36-0.333-3.068-0.452-6.664 1.711-9.138 1.543-1.765 4.298-1.846 6.49-1.928 16.695-0.617 29.844 5.033 41.964 16.413-2.487 11.876-2.189 23.294 4.658 33.748 1.089 1.664 2.326 3.203 3.649 4.687z" fill="#5FC982"/> <path transform="scale(2.1094)" d="m246.6 831.47c7.837-14.162 18.934-23.307 34.496-27.881 4.278-1.257 14.72-3.738 18.702-1.164 1.845 1.192 2.211 3.398 2.521 5.413 2.336 15.176-1.504 31.861-10.74 44.182-6.724 8.969-17.623 17.181-29.043 18.569-2.63 0.319-5.136 0.239-7.629-0.684-1.323-1.484-2.56-3.023-3.649-4.687-6.847-10.454-7.145-21.872-4.658-33.748z" fill="#22A268"/> <path transform="scale(2.1094)" d="m475.13 483.61c19.56 7.863 33.731 10.179 54.367 4.614 4.648-1.253 9.28-3.41 13.895-4.484 0.568 3.514 1.011 7.112 1.773 10.586 1.851 11.207 4.933 22.159 11.537 31.531 5.93 8.187 12.944 14.036 22.147 18.228 12.976 5.158 26.379 9.386 39.425 14.427 29.247 11.301 57.243 26.409 80.972 47.058 5.477 4.766 10.571 9.892 15.501 15.217 2.799 3.024 5.486 6.357 8.504 9.142 0.848-2.318 1.434-4.793 2.124-7.166l3.071 1.833c27.332 15.17 59.426 33.187 68.783 65.362 4.773 16.416 3.692 35.2-3.628 50.717-1.696-1.507-3.157-3.399-4.658-5.103l-0.433 0.417 3.427 5.461c14.06 32.873 14.67 45.927 14.445 80.644-4.354 0.728-9.27 0.349-13.691 0.34l-3.33-0.148c-6.678 0.606-13.567 0.264-20.273 0.243l0.915 34.502 5e-3 10.957c-0.344 16.548-5.231 34.136-15.832 47.203-10.915 12.709-26.901 22.244-43.75 23.564-20.3 1.59-40.763 0.379-61.105 0.335l-78.467-0.164c-14.536-0.074-29.077-0.567-43.613-0.232-6.924 0.159-13.822 0.823-20.741 1.086-8.691 0.33-17.392-0.733-26.089-0.036-7.312 1.12-20.027 0.245-27.795 0.25-15.586 8e-3 -31.879 0.943-47.391-0.36-17.227-0.553-34.574-0.18-51.81-0.196 3.975-4.016 9.689-5.97 13.669-10.155 3.999-4.205 5.519-9.706 6.053-15.339 1.381-14.59 0.33-30.004 0.322-44.687l-0.02-85.473 9e-3 -140.82c7e-3 -24.983 0.657-50.173-0.138-75.134 3.875-0.732 8.262-2.967 11.958-4.412l24.323-9.488c10.212-3.885 20.932-6.708 31.374-9.929 9.698-3.724 15.937-10.167 22.382-18.078 6.652-9.306 8.939-19.878 10.548-31.038 0.612-3.752 1.018-7.477 1.235-11.271zm316.81 257.84c-8.845 1.907-18.302 1.387-27.264 0.598 0.51 6.499-0.39 23.593 3.029 28.402-0.639 1.645-0.278 2.199 0.013 3.781 0.011 0.063 1e-3 0.128 1e-3 0.191-0.864 6.719-0.162 14.011 0.195 20.763 0.482 9.108 1.031 18.224 1.177 27.344 6.706 0.021 13.595 0.363 20.273-0.243l3.33 0.148c4.421 9e-3 9.337 0.388 13.691-0.34 0.225-34.717-0.385-47.771-14.445-80.644z" fill="#22A268"/> <path transform="scale(2.1094)" d="m725.37 622.76 3.071 1.833c0.315 2.207 1.362 4.629 1.427 6.786 0.112 4.004 1.751 8.029 3.043 11.771-3.221-3.659-7.968-8.655-9.665-13.224 0.848-2.318 1.434-4.793 2.124-7.166z" fill="#A0A33E"/> <path transform="scale(2.1094)" d="m753.5 688.79c3.28 2.207 27.277 35.303 29.994 39.998-1.863-0.25-18.776-8.902-22.596-10.564-2.873-9.633-5.046-19.658-7.398-29.434z" fill="#9BC866"/> <path transform="scale(2.1094)" d="m761.27 719.09c6.5 2.683 14.232 6.106 20.091 9.968l0.784 0.524c2.646 1.734 4.398 3.974 6.365 6.407l3.427 5.461c-8.845 1.907-18.302 1.387-27.264 0.598-1.348-7.584-2.955-15.263-3.403-22.958z" fill="#9BC866"/> <path transform="scale(2.1094)" d="m659.47 741.36c0.652 0.364 1.491 0.836 2.012 1.392 0.901 0.963 0.927 2.292 1.006 3.54 0.668 10.57-0.01 21.394-0.018 31.998l0.011 66.702c10.627 0.166 26.048-1.395 35.852-0.07 2.112 0.285 4.313 0.739 5.661 2.514l-0.151 0.931c-2.01 1.509-4.609 1.885-7.071 2.03-5.105 0.302-10.415-0.108-15.543-0.162l-26.753-0.038-95.724 0.02c-8.458-0.071-16.923 0.06-25.38 0.222-4.702 0.091-9.784 0.562-14.455 0.02-1.524-0.177-2.586-0.464-3.759-1.498-0.418-1.452-0.257-1.597 0.274-3.038 1.294-0.948 2.828-0.931 4.372-0.986 17.034-0.605 34.338 0.144 51.398 0.243l86.569-0.184c0.439-20.964 0.405-42.187 0.191-63.151-0.112-10.864-1.18-21.892-0.408-32.73 0.207-2.896 0.65-5.101 1.916-7.755z" fill="#006249"/> <path transform="scale(2.1094)" d="m767.7 770.45c12.402 15.803 20.74 32.223 24.989 51.984l-3.33-0.148c-3.937-17.987-12.127-32.381-21.645-47.864 0-0.063 0.01-0.128-1e-3 -0.191-0.291-1.582-0.652-2.136-0.013-3.781z" fill="#0A844A"/> <path transform="scale(2.1094)" d="m728.44 624.59c27.332 15.17 59.426 33.187 68.783 65.362 4.773 16.416 3.692 35.2-3.628 50.717-1.696-1.507-3.157-3.399-4.658-5.103-1.036-1.495-2.093-2.989-2.528-4.782-1.183-4.873-0.622-10.881-0.718-15.904-0.154-8.096-0.992-16.134-1.462-24.217-0.318-5.479 0.192-12.14-1.254-17.401l-0.676-0.365c-1.813 4.845 2.278 47.477 2.819 55.883-5.814-8.41-11.903-16.628-17.999-24.834-1.382-18.941-2.203-37.849-3.377-56.791-2.301 9.389 0.44 44.312 1.832 54.959-4.915-5.436-12.386-14.741-15.399-21.335-2.66-5.821-4.437-12.029-7.142-17.848-3.1-6.67-7.02-13.03-9.655-19.903-1.402-3.654-1.769-7.562-3.306-11.183-0.066-0.157-0.136-0.312-0.205-0.469-0.065-2.157-1.112-4.579-1.427-6.786z" fill="#9BC866"/> <path transform="scale(2.1094)" d="m475.13 483.61c19.56 7.863 33.731 10.179 54.367 4.614 4.648-1.253 9.28-3.41 13.895-4.484 0.568 3.514 1.011 7.112 1.773 10.586 1.851 11.207 4.933 22.159 11.537 31.531 5.93 8.187 12.944 14.036 22.147 18.228-1.576 6.883-31.375 44.741-37.846 53.623-10.488-12.728-20.913-25.52-31.561-38.115-10.169 12.674-20.063 25.969-30.855 38.101-5.666-6.981-10.532-14.998-15.798-22.316-5.608-7.794-18.523-23.11-21.824-31.381 9.698-3.724 15.937-10.167 22.382-18.078 6.652-9.306 8.939-19.878 10.548-31.038 0.612-3.752 1.018-7.477 1.235-11.271z" fill="#0A844A"/> <path transform="scale(2.1094)" d="m475.13 483.61c19.56 7.863 33.731 10.179 54.367 4.614 4.648-1.253 9.28-3.41 13.895-4.484 0.568 3.514 1.011 7.112 1.773 10.586 1.851 11.207 4.933 22.159 11.537 31.531-5.079 2.43-10.002 7.043-14.641 10.378l-32.022 22.721c-8.435-6.376-17.206-12.321-25.803-18.477-6.847-4.902-13.63-10.295-20.889-14.56 6.652-9.306 8.939-19.878 10.548-31.038 0.612-3.752 1.018-7.477 1.235-11.271z" fill="#FAC1A2"/> <path transform="scale(2.1094)" d="m475.13 483.61c19.56 7.863 33.731 10.179 54.367 4.614 4.648-1.253 9.28-3.41 13.895-4.484 0.568 3.514 1.011 7.112 1.773 10.586-11.197 9.265-31.268 10.512-45.064 9.17-8.712-0.848-19.504-2.456-26.206-8.615 0.612-3.752 1.018-7.477 1.235-11.271z" fill="#FB953C"/> <path transform="scale(2.1094)" d="m388.07 797.84c2.002-4.561 4.238-8.536 9.196-10.352 8.456-3.1 68.206-3.338 75.403 0.477 4.514 2.393 7.054 5.791 8.379 10.66 2.56 9.409 2.264 20.92 2.515 30.659 3.047-0.402 4.926-0.273 7.439 1.634 5.585 4.236 7.713 17.511 12.603 19.698 2.591 1.159 8.382 0.396 11.349 0.337l0.03 71.851c-6.326 0.081-12.954 0.551-19.25 0.109l-11.901 0.079c0.654 6.817 0.267 10.787-3.421 16.746-7.312 1.12-20.027 0.245-27.795 0.25-15.586 8e-3 -31.879 0.943-47.391-0.36-1.874-2.341-4.205-4.95-4.783-7.954-2.657-13.815-3.303-30.856-4.7-45.153l-8.416-80.442c-0.495-2.882 7e-3 -5.45 0.743-8.239z" fill="#BCE2A4"/> <path transform="scale(2.1094)" d="m388.07 797.84 0.42-0.237c3.257-1.876 6.077-4.883 9.76-5.862 7.95-2.113 59.234-3.191 67.721-0.873 2.569 0.702 4.875 2.297 6.23 4.618 1.174 2.011 1.439 5.072 0.619 7.265-0.445 1.191-1.08 1.864-2.281 2.306-0.732 0.269-1.7 0.372-2.48 0.44-1.129 0.121-2.063-0.2-3.146-0.482-5.274 2.633-66.854 0.83-77.586 1.064-0.495-2.882 7e-3 -5.45 0.743-8.239z" fill="#D0EDD0"/> <path transform="scale(2.1094)" d="m399.97 794.68c1.415 0.205 2.853 0.412 4.117 1.128 0.861 0.487 1.604 1.394 1.755 2.377 0.325 2.121-0.901 3.677-2.068 5.3-1.631 0.038-2.962-0.097-4.382-0.945-0.98-0.585-1.503-1.37-1.682-2.505-0.361-2.295 0.926-3.689 2.26-5.355z" fill="#263E4F"/> <path transform="scale(2.1094)" d="m464.91 805.02c-1.427-1.185-2.473-1.98-3.146-3.741 0.104-1.304 0.059-2.016 1.118-2.967 1.212-1.087 3.608-1.679 5.185-1.232 1.001 0.284 1.42 0.644 2.134 1.358 0.498 1.215 0.583 1.959 0.165 3.239-0.435 1.333-1.475 2.706-2.31 3.825-1.129 0.121-2.063-0.2-3.146-0.482z" fill="#263E4F"/> <path transform="scale(2.1094)" d="m483.56 829.29c3.047-0.402 4.926-0.273 7.439 1.634 5.585 4.236 7.713 17.511 12.603 19.698 2.591 1.159 8.382 0.396 11.349 0.337l0.03 71.851c-6.326 0.081-12.954 0.551-19.25 0.109-4.384-0.797-9.282-0.409-13.746-0.364-18.711 0.188-38.355 1.812-52.853-12.352-6.618-6.466-10.954-15.35-11-24.685-0.042-8.218 3.013-16.436 8.943-22.217 13.575-13.234 35.222-10.57 52.567-10.349-0.839-9.067-1.681-15.817 3.918-23.662z" fill="#FAC1A2"/> </svg>